<?xml version="1.0" standalone="no"?>
<!DOCTYPE svg PUBLIC "-//W3C//DTD SVG 1.1//EN" "http://www.w3.org/Graphics/SVG/1.1/DTD/svg11.dtd">
<svg xmlns="http://www.w3.org/2000/svg" id="Layer_2" viewBox="0 0 72 72" width="72" height="72"><defs><style>.cls-1{fill:#5eb3e4;}.cls-2{fill:#004175;fill-rule:evenodd;}</style></defs><g id="Layer_1-2"><circle class="cls-1" cx="36" cy="36" r="36"/><path class="cls-2" d="m19.02,21.68c10.79,0,21.4-.16,32.01-.15,5.84,0,10.61,4.78,10.6,10.62,0,6.01-4.96,10.43-10.8,10.43.04,12.91-3.1,12.38-16.1,12.37-15.51-.01-16.63.52-16.61-16.64v-15.74c.01-.53.37-.88.9-.88h0Zm32.36,3.74v13.26c3.53,0,6.36-3,6.36-6.54s-2.82-6.55-6.36-6.73h0Z"/><path class="cls-1" d="m23.93,32.02c-.94,0-1.7.77-1.69,1.71l.02,3.94c0,.94.77,1.7,1.71,1.69s1.7-.77,1.69-1.71l-.02-3.94c0-.94-.77-1.7-1.71-1.69Z"/><circle class="cls-1" cx="23.94" cy="28.02" r="1.83"/></g></svg>