<?xml version="1.0" standalone="no"?>
<!DOCTYPE svg PUBLIC "-//W3C//DTD SVG 1.1//EN" "http://www.w3.org/Graphics/SVG/1.1/DTD/svg11.dtd">
<svg xmlns="http://www.w3.org/2000/svg" id="Layer_2" viewBox="0 0 72 72" width="72" height="72"><defs><style>.cls-1{fill:#5eb3e4;}.cls-1,.cls-2{stroke-width:0px;}.cls-2{fill:#004175;}</style></defs><g id="Layer_1-2"><circle class="cls-1" cx="36" cy="36" r="36"/><path class="cls-2" d="m43.12,46.32l-9.87-7.84c-.23-.18-.36-.46-.36-.75v-15.49c0-.53.43-.96.96-.96h3.2c.53,0,.96.43.96.96v13.02c0,.29.13.57.36.75l7.93,6.3c.42.33.48.93.15,1.35l-1.99,2.51c-.33.42-.93.48-1.35.15Z"/><path class="cls-2" d="m36.14,11.26v3.01c0,.59.46,1.07,1.05,1.1,10.83.55,19.47,9.53,19.47,20.49,0,11.56-9.62,20.92-21.27,20.51-10.6-.38-19.27-8.96-19.75-19.56-.26-5.75,1.84-11.2,5.82-15.28v3.7c0,.45.37.82.82.82h3.37c.52,0,.94-.42.94-.94v-11.25c0-.46-.37-.83-.83-.83h-11.06c-.62,0-1.12.5-1.12,1.12v3.05c0,.52.43.95.95.95h3.08c-5.19,5.42-7.74,12.73-6.98,20.36,1.15,11.56,11.84,22,23.42,22.92,15.08,1.2,27.74-10.73,27.74-25.56,0-13.78-10.93-25.06-24.58-25.62-.58-.02-1.07.43-1.07,1.02Z"/></g></svg>