<?xml version="1.0" standalone="no"?>
<!DOCTYPE svg PUBLIC "-//W3C//DTD SVG 1.1//EN" "http://www.w3.org/Graphics/SVG/1.1/DTD/svg11.dtd">
<svg xmlns="http://www.w3.org/2000/svg" id="Layer_2" viewBox="0 0 72 72" width="72" height="72"><defs><style>.cls-1{fill:#5eb3e4;}.cls-1,.cls-2{stroke-width:0px;}.cls-2{fill:#004175;}</style></defs><g id="Layer_1-2"><circle class="cls-1" cx="36" cy="36" r="36"/><path class="cls-2" d="m19.24,43.39h43.72c.86,0,1.41.9,1.03,1.67l-1.39,2.78c-.19.39-.59.64-1.03.64h-15.96c-.45,0-.86.27-1.05.68l-5.37,11.98c-.19.41-.6.68-1.05.68h-14.27c-.51,0-.96-.34-1.11-.83l-4.63-16.12c-.21-.74.34-1.47,1.11-1.47Z"/><path class="cls-1" d="m30.99,59.43h-4.91c-.55,0-1.05-.35-1.24-.86l-1.79-4.91c-.25-.68.1-1.44.79-1.68.69-.25,1.44.11,1.68.79l1.47,4.05h3.99c.73,0,1.31.59,1.31,1.31s-.59,1.31-1.31,1.31Z"/><path class="cls-2" d="m19.24,22.56h43.72c.86,0,1.41.9,1.03,1.67l-1.39,2.78c-.19.39-.59.64-1.03.64h-15.96c-.45,0-.86.27-1.05.68l-5.37,11.98c-.19.41-.6.68-1.05.68h-14.27c-.51,0-.96-.34-1.11-.83l-4.63-16.12c-.21-.74.34-1.47,1.11-1.47Z"/><path class="cls-2" d="m19.35,20.17h24.23c.41,0,.73-.36.68-.77-.51-4.6-2.18-5.58-3.84-5.71-1.75-.13-3.06.94-5.48.81-2.78-.15-4.05-3.91-6.48-4.18s-4.72.54-6.88,3.91c-1.06,1.66-2.19,3.72-2.84,4.93-.25.46.09,1.01.61,1.01Z"/><path class="cls-1" d="m30.54,37.55h-4.91c-.55,0-1.05-.35-1.24-.86l-1.79-4.91c-.25-.68.1-1.44.79-1.68.68-.25,1.44.11,1.68.79l1.47,4.05h3.99c.73,0,1.31.59,1.31,1.31s-.59,1.31-1.31,1.31Z"/></g></svg>