<?xml version="1.0" standalone="no"?>
<!DOCTYPE svg PUBLIC "-//W3C//DTD SVG 1.1//EN" "http://www.w3.org/Graphics/SVG/1.1/DTD/svg11.dtd">
<svg xmlns="http://www.w3.org/2000/svg" id="Layer_1" data-name="Layer 1" version="1.1" viewBox="0 0 108 108" width="108" height="108">
  <defs>
    <style>
      .cls-1 {
        fill: #5eb3e4;
      }

      .cls-1, .cls-2 {
        stroke-width: 0px;
      }

      .cls-2 {
        fill: #004175;
      }

      .cls-3 {
        isolation: isolate;
      }
    </style>
  </defs>
  <circle class="cls-1" cx="54.1" cy="54" r="51.4"/>
  <g class="cls-3">
    <g class="cls-3">
      <path class="cls-2" d="M20,35.5v-6.9h12.1v31.8h-7.8v-24.9h-4.3Z"/>
      <path class="cls-2" d="M40,32.2c1.9-2.9,5-4.3,9.4-4.3s7.4,1.4,9.4,4.3c1.9,2.9,2.9,6.8,2.9,11.8s-1,9-2.9,11.9c-1.9,2.9-5.1,4.3-9.4,4.3s-7.4-1.4-9.4-4.3c-1.9-2.9-2.9-6.8-2.9-11.9s1-8.9,2.9-11.8ZM53.3,37.3c-.6-1.6-2-2.4-4-2.4s-3.3.8-4,2.4c-.6,1.6-1,3.8-1,6.8s.1,3.6.3,4.9c.2,1.3.7,2.3,1.4,3.1.7.8,1.8,1.2,3.2,1.2s2.4-.4,3.2-1.2c.7-.8,1.2-1.8,1.4-3.1s.3-2.9.3-4.9c0-2.9-.3-5.2-1-6.8Z"/>
      <path class="cls-2" d="M80,36.8c1.3.7,2.3,1.6,3,2.7v-3.4h7.5v24.3c0,2.2-.4,4.3-1.3,6.1-.9,1.8-2.2,3.3-4.1,4.3-1.8,1.1-4.1,1.6-6.8,1.6s-6.5-.8-8.8-2.5-3.5-4-3.8-6.9h7.4c.2.9.8,1.7,1.7,2.2.9.5,1.9.8,3.2.8s2.8-.4,3.7-1.3c.9-.9,1.4-2.3,1.4-4.2v-3.4c-.7,1.1-1.7,2.1-3,2.8-1.3.7-2.8,1.1-4.5,1.1s-3.8-.5-5.4-1.5c-1.6-1-2.9-2.5-3.9-4.4-.9-1.9-1.4-4.1-1.4-6.6s.5-4.7,1.4-6.6c.9-1.9,2.2-3.3,3.9-4.4,1.6-1,3.4-1.5,5.4-1.5s3.2.3,4.5,1ZM81.5,43.8c-1-1.1-2.3-1.6-3.8-1.6s-2.7.5-3.8,1.6c-1,1.1-1.5,2.5-1.5,4.4s.5,3.3,1.5,4.4c1,1.1,2.3,1.6,3.8,1.6s2.7-.5,3.8-1.6,1.5-2.5,1.5-4.4-.5-3.3-1.5-4.4Z"/>
    </g>
  </g>
  <g class="cls-3">
    <g class="cls-3">
      <path class="cls-2" d="M50.1,74.1c-.2.4-.5.7-1,.9-.4.2-1,.3-1.6.3h-1.2v2.8h-1.9v-7.9h3.1c.6,0,1.2.1,1.6.3.4.2.8.5,1,.9s.3.8.3,1.3-.1.9-.3,1.2ZM48.2,73.6c.2-.2.3-.4.3-.7s0-.6-.3-.7c-.2-.2-.5-.3-.8-.3h-1v2h1c.4,0,.6,0,.8-.3Z"/>
      <path class="cls-2" d="M53.3,71.9v1.6h2.6v1.5h-2.6v1.7h2.9v1.5h-4.8v-7.9h4.8v1.5h-2.9Z"/>
      <path class="cls-2" d="M61.5,78.2l-1.6-3h-.5v3h-1.9v-7.9h3.2c.6,0,1.1.1,1.6.3.4.2.8.5,1,.9.2.4.3.8.3,1.3s-.1,1-.4,1.4c-.3.4-.7.7-1.3.9l1.8,3.1h-2.2ZM59.4,73.9h1.2c.4,0,.6,0,.8-.3.2-.2.3-.4.3-.7s0-.5-.3-.7c-.2-.2-.4-.3-.8-.3h-1.2v2Z"/>
    </g>
    <g class="cls-3">
      <path class="cls-2" d="M31.6,89.8c-.5-.2-.8-.5-1.1-.8s-.4-.8-.4-1.3h2c0,.3.1.5.3.7.2.2.4.2.7.2s.5,0,.7-.2c.2-.1.2-.3.2-.5s0-.4-.2-.5c-.1-.1-.3-.2-.5-.3-.2,0-.5-.2-.8-.3-.5-.2-.9-.3-1.2-.5s-.6-.4-.8-.7c-.2-.3-.3-.7-.3-1.2,0-.7.3-1.3.8-1.7s1.2-.6,2.1-.6,1.6.2,2.1.6c.5.4.8,1,.9,1.7h-2.1c0-.3-.1-.5-.3-.6-.2-.1-.4-.2-.7-.2s-.4,0-.6.2c-.1.1-.2.3-.2.5s.1.5.4.6c.2.1.6.3,1.1.5.5.2.9.3,1.2.5.3.2.6.4.8.7.2.3.3.7.3,1.2s-.1.9-.3,1.2c-.2.4-.6.7-1,.9-.4.2-.9.3-1.5.3s-1.1,0-1.5-.3Z"/>
      <path class="cls-2" d="M39.1,83.7v1.6h2.6v1.5h-2.6v1.7h2.9v1.5h-4.8v-7.9h4.8v1.5h-2.9Z"/>
      <path class="cls-2" d="M47.2,90l-1.6-3h-.5v3h-1.9v-7.9h3.2c.6,0,1.1.1,1.6.3s.8.5,1,.9c.2.4.3.8.3,1.3s-.1,1-.4,1.4c-.3.4-.7.7-1.3.9l1.8,3.1h-2.2ZM45.1,85.7h1.2c.4,0,.6,0,.8-.3.2-.2.3-.4.3-.7s0-.5-.3-.7c-.2-.2-.4-.3-.8-.3h-1.2v2Z"/>
      <path class="cls-2" d="M57.9,82.2l-2.8,7.9h-2.4l-2.8-7.9h2l2,5.9,2-5.9h2Z"/>
      <path class="cls-2" d="M60.6,82.2v7.9h-1.9v-7.9h1.9Z"/>
      <path class="cls-2" d="M69.1,90h-1.9l-3.2-4.9v4.9h-1.9v-7.9h1.9l3.2,4.9v-4.9h1.9v7.9Z"/>
      <path class="cls-2" d="M75.7,84.7c-.1-.3-.3-.5-.6-.6-.3-.1-.6-.2-.9-.2-.6,0-1.1.2-1.5.6-.4.4-.6,1-.6,1.6s.2,1.3.6,1.7c.4.4.9.6,1.6.6s.9-.1,1.2-.4.6-.6.7-1h-2.4v-1.4h4.2v1.8c-.1.5-.4.9-.7,1.3-.3.4-.8.7-1.3,1s-1.1.4-1.8.4-1.5-.2-2.1-.5-1.1-.8-1.4-1.4-.5-1.3-.5-2.1.2-1.5.5-2.1.8-1.1,1.4-1.4c.6-.3,1.3-.5,2.1-.5s1.7.2,2.4.7,1.1,1.1,1.3,1.9h-2.1Z"/>
    </g>
  </g>
</svg>