<?xml version="1.0" standalone="no"?>
<!DOCTYPE svg PUBLIC "-//W3C//DTD SVG 1.1//EN" "http://www.w3.org/Graphics/SVG/1.1/DTD/svg11.dtd">
<svg xmlns="http://www.w3.org/2000/svg" id="Layer_1" data-name="Layer 1" version="1.1" viewBox="0 0 102.4 105.1" width="102.4000015258789" height="105.0999984741211">
  <defs>
    <style>
      .cls-1 {
        fill: #5eb3e4;
      }

      .cls-1, .cls-2 {
        stroke-width: 0px;
      }

      .cls-2 {
        fill: #004175;
      }
    </style>
  </defs>
  <circle class="cls-1" cx="51.2" cy="52.5" r="49.2"/>
  <path class="cls-2" d="M63.3,53.5c0-2.6,2.1-4.7,4.7-4.7s4.7,2.1,4.7,4.7v3.9h3.4v-3.9c0-4.5-3.6-8.1-8.1-8.1s-8.1,3.6-8.1,8.1v3.9h3.4s0-3.9,0-3.9Z"/>
  <path class="cls-2" d="M78.7,59.5h-21.5c-.9,0-1.7.8-1.7,1.7v15.7c0,.9.8,1.7,1.7,1.7h21.5c.9,0,1.7-.8,1.7-1.7v-15.7c0-.9-.8-1.7-1.7-1.7ZM69.7,70.9c0,.9-.8,1.7-1.7,1.7s-1.7-.8-1.7-1.7v-3.8c0-.9.8-1.7,1.7-1.7s1.7.8,1.7,1.7v3.8Z"/>
  <path class="cls-2" d="M76.8,29.6H24.6c-3.1,0-5.6,2.5-5.6,5.6v33.9c0,3.1,2.5,5.6,5.6,5.6h27c.6,0,1-.5,1-1s-.5-1-1-1h-27c-2,0-3.6-1.6-3.6-3.5v-25.3h59.4v12.4c0,.6.5,1,1,1s1-.5,1-1v-21c0-3.1-2.5-5.5-5.6-5.5h0ZM21,37.9v-2.7c0-1.9,1.6-3.5,3.6-3.5h52.2c2,0,3.6,1.6,3.6,3.5v2.7H21Z"/>
  <path class="cls-2" d="M27.6,65.9c-.6,0-1,.5-1,1s.5,1,1,1h3.8c.6,0,1-.5,1-1s-.5-1-1-1h-3.8Z"/>
</svg>